# xmcd CD database file
#
# Track frame offsets:
#	150
#	14315
#	26500
#	39855
#	55295
#	64220
#	84780
#	94340
#	104450
#	117640
#	129150
#	142195
#	154105
#	167370
#	182920
#	193180
#	215250
#	230510
#	241445
#	254540
#
# Disc length: 3562 seconds
#
# Revision: 0
# Processed by: cddbd v1.5.2PL0 Copyright (c) Steve Scherf et al.
# Submitted via: CDex 1.70beta2
#
DISCID=150de814
DTITLE=Tony Bennett - King of Broken Hearts CD2
DYEAR=1900
DGENRE=Jazz
TTITLE0=I Can't Believe That You're In Love With Me
TTITLE1=I Can't Give You Anything But Love
TTITLE2=I'm The King of Broken Hearth
TTITLE3=These Foolish Things(Remind Me of You)
TTITLE4=Love Walked In
TTITLE5=While The Music Plays On
TTITLE6=Taking A Chance On Love
TTITLE7=You Can Depend On Me
TTITLE8=Since My Love Has Gone
TTITLE9=The Valentino Tango
TTITLE10=Somewhere Along The Way
TTITLE11=No One Will Ever Know
TTITLE12=Sleepless
TTITLE13=I'm Just A Lucky So and So
TTITLE14=My Reverie
TTITLE15=My Heart Tells Me
TTITLE16=Dar That Dream
TTITLE17=One Lie Leads To Another
TTITLE18=Without A Song
TTITLE19=I'll Be Seeing You
EXTD=
EXTT0=
EXTT1=
EXTT2=
EXTT3=
EXTT4=
EXTT5=
EXTT6=
EXTT7=
EXTT8=
EXTT9=
EXTT10=
EXTT11=
EXTT12=
EXTT13=
EXTT14=
EXTT15=
EXTT16=
EXTT17=
EXTT18=
EXTT19=
PLAYORDER=
